  0
SECTION
  2
ENTITIES
  0
POLYLINE
  8
3D_Object
 66
  1
 70
 64
 71
143
 72
282
  0
VERTEX
  8
3D_Object
 10
1376.000000
 20
-1280.000000
 30
-1536.000000
 70
192
  0
VERTEX
  8
3D_Object
 10
1472.000000
 20
-1536.000000
 30
-1536.000000
 70
192
  0
VERTEX
  8
3D_Object
 10
1216.000000
 20
-1536.000000
 30
-1536.000000
 70
192
  0
VERTEX
  8
3D_Object
 10
1120.000000
 20
-1280.000000
 30
-1536.000000
 70
192
  0
VERTEX
  8
3D_Object
 10
-2048.000000
 20
0.000000
 30
-1536.000000
 70
192
  0
VERTEX
  8
3D_Object
 10
-2048.000000
 20
-1024.000000
 30
1536.000000
 70
192
  0
VERTEX
  8
3D_Object
 10
-2048.000000
 20
0.000000
 30
1536.000000
 70
192
  0
VERTEX
  8
3D_Object
 10
-1024.000000
 20
-2048.000000
 30
1536.000000
 70
192
  0
VERTEX
  8
3D_Object
 10
-2048.000000
 20
-2048.000000
 30
1536.000000
 70
192
  0
VERTEX
  8
3D_Object
 10
-2048.000000
 20
-2048.000000
 30
-1536.000000
 70
192
  0
VERTEX
  8
3D_Object
 10
-1024.000000
 20
-2048.000000
 30
-1536.000000
 70
192
  0
VERTEX
  8
3D_Object
 10
2048.000000
 20
-2048.000000
 30
-1536.000000
 70
192
  0
VERTEX
  8
3D_Object
 10
2048.000000
 20
-1024.000000
 30
-1536.000000
 70
192
  0
VERTEX
  8
3D_Object
 10
2048.000000
 20
-1024.000000
 30
1536.000000
 70
192
  0
VERTEX
  8
3D_Object
 10
-2048.000000
 20
2048.000000
 30
-1536.000000
 70
192
  0
VERTEX
  8
3D_Object
 10
-2048.000000
 20
2048.000000
 30
1536.000000
 70
192
  0
VERTEX
  8
3D_Object
 10
-1024.000000
 20
2048.000000
 30
-1536.000000
 70
192
  0
VERTEX
  8
3D_Object
 10
-1024.000000
 20
2048.000000
 30
1536.000000
 70
192
  0
VERTEX
  8
3D_Object
 10
0.000000
 20
2048.000000
 30
-1536.000000
 70
192
  0
VERTEX
  8
3D_Object
 10
0.000000
 20
2048.000000
 30
1536.000000
 70
192
  0
VERTEX
  8
3D_Object
 10
1024.000000
 20
2048.000000
 30
-1536.000000
 70
192
  0
VERTEX
  8
3D_Object
 10
1024.000000
 20
2048.000000
 30
1536.000000
 70
192
  0
VERTEX
  8
3D_Object
 10
2048.000000
 20
2048.000000
 30
-1536.000000
 70
192
  0
VERTEX
  8
3D_Object
 10
2048.000000
 20
2048.000000
 30
1536.000000
 70
192
  0
VERTEX
  8
3D_Object
 10
2048.000000
 20
-2048.000000
 30
1536.000000
 70
192
  0
VERTEX
  8
3D_Object
 10
2048.000000
 20
0.000000
 30
-1536.000000
 70
192
  0
VERTEX
  8
3D_Object
 10
2048.000000
 20
0.000000
 30
1536.000000
 70
192
  0
VERTEX
  8
3D_Object
 10
2048.000000
 20
1024.000000
 30
-1536.000000
 70
192
  0
VERTEX
  8
3D_Object
 10
2048.000000
 20
1024.000000
 30
1536.000000
 70
192
  0
VERTEX
  8
3D_Object
 10
0.000000
 20
-2048.000000
 30
-1536.000000
 70
192
  0
VERTEX
  8
3D_Object
 10
0.000000
 20
-2048.000000
 30
1536.000000
 70
192
  0
VERTEX
  8
3D_Object
 10
1024.000000
 20
-2048.000000
 30
-1536.000000
 70
192
  0
VERTEX
  8
3D_Object
 10
1024.000000
 20
-2048.000000
 30
1536.000000
 70
192
  0
VERTEX
  8
3D_Object
 10
1536.000000
 20
-2048.000000
 30
-1536.000000
 70
192
  0
VERTEX
  8
3D_Object
 10
1280.000000
 20
-2048.000000
 30
-1536.000000
 70
192
  0
VERTEX
  8
3D_Object
 10
1792.000000
 20
-2048.000000
 30
-1536.000000
 70
192
  0
VERTEX
  8
3D_Object
 10
-1024.000000
 20
-1024.000000
 30
1536.000000
 70
192
  0
VERTEX
  8
3D_Object
 10
-1024.000000
 20
0.000000
 30
1536.000000
 70
192
  0
VERTEX
  8
3D_Object
 10
-2048.000000
 20
1024.000000
 30
1536.000000
 70
192
  0
VERTEX
  8
3D_Object
 10
-1024.000000
 20
1024.000000
 30
1536.000000
 70
192
  0
VERTEX
  8
3D_Object
 10
0.000000
 20
-1024.000000
 30
1536.000000
 70
192
  0
VERTEX
  8
3D_Object
 10
0.000000
 20
0.000000
 30
1536.000000
 70
192
  0
VERTEX
  8
3D_Object
 10
0.000000
 20
1024.000000
 30
1536.000000
 70
192
  0
VERTEX
  8
3D_Object
 10
1024.000000
 20
-1024.000000
 30
1536.000000
 70
192
  0
VERTEX
  8
3D_Object
 10
1024.000000
 20
0.000000
 30
1536.000000
 70
192
  0
VERTEX
  8
3D_Object
 10
1024.000000
 20
1024.000000
 30
1536.000000
 70
192
  0
VERTEX
  8
3D_Object
 10
-2048.000000
 20
-1024.000000
 30
-1536.000000
 70
192
  0
VERTEX
  8
3D_Object
 10
-2048.000000
 20
1024.000000
 30
-1536.000000
 70
192
  0
VERTEX
  8
3D_Object
 10
-2048.000000
 20
768.000000
 30
-1536.000000
 70
192
  0
VERTEX
  8
3D_Object
 10
-2048.000000
 20
1280.000000
 30
-1536.000000
 70
192
  0
VERTEX
  8
3D_Object
 10
-2048.000000
 20
1408.000000
 30
-1536.000000
 70
192
  0
VERTEX
  8
3D_Object
 10
1024.000000
 20
1024.000000
 30
-1536.000000
 70
192
  0
VERTEX
  8
3D_Object
 10
0.000000
 20
1024.000000
 30
-1536.000000
 70
192
  0
VERTEX
  8
3D_Object
 10
1792.000000
 20
-1792.000000
 30
-1536.000000
 70
192
  0
VERTEX
  8
3D_Object
 10
1536.000000
 20
-1792.000000
 30
-1536.000000
 70
192
  0
VERTEX
  8
3D_Object
 10
1280.000000
 20
-1792.000000
 30
-1536.000000
 70
192
  0
VERTEX
  8
3D_Object
 10
1024.000000
 20
-1792.000000
 30
-1536.000000
 70
192
  0
VERTEX
  8
3D_Object
 10
1728.000000
 20
-1536.000000
 30
-1536.000000
 70
192
  0
VERTEX
  8
3D_Object
 10
960.000000
 20
-1536.000000
 30
-1536.000000
 70
192
  0
VERTEX
  8
3D_Object
 10
1632.000000
 20
-1280.000000
 30
-1536.000000
 70
192
  0
VERTEX
  8
3D_Object
 10
864.000000
 20
-1280.000000
 30
-1536.000000
 70
192
  0
VERTEX
  8
3D_Object
 10
1552.000000
 20
-1024.000000
 30
-1536.000000
 70
192
  0
VERTEX
  8
3D_Object
 10
1296.000000
 20
-1024.000000
 30
-1536.000000
 70
192
  0
VERTEX
  8
3D_Object
 10
1040.000000
 20
-1024.000000
 30
-1536.000000
 70
192
  0
VERTEX
  8
3D_Object
 10
784.000000
 20
-1024.000000
 30
-1536.000000
 70
192
  0
VERTEX
  8
3D_Object
 10
1504.000000
 20
-768.000000
 30
-1536.000000
 70
192
  0
VERTEX
  8
3D_Object
 10
1248.000000
 20
-768.000000
 30
-1536.000000
 70
192
  0
VERTEX
  8
3D_Object
 10
992.000000
 20
-768.000000
 30
-1536.000000
 70
192
  0
VERTEX
  8
3D_Object
 10
736.000000
 20
-768.000000
 30
-1536.000000
 70
192
  0
VERTEX
  8
3D_Object
 10
1376.000000
 20
-208.000000
 30
-1536.000000
 70
192
  0
VERTEX
  8
3D_Object
 10
1120.000000
 20
-304.000000
 30
-1536.000000
 70
192
  0
VERTEX
  8
3D_Object
 10
880.000000
 20
-448.000000
 30
-1536.000000
 70
192
  0
VERTEX
  8
3D_Object
 10
640.000000
 20
-512.000000
 30
-1536.000000
 70
192
  0
VERTEX
  8
3D_Object
 10
1280.000000
 20
48.000000
 30
-1536.000000
 70
192
  0
VERTEX
  8
3D_Object
 10
1024.000000
 20
-48.000000
 30
-1536.000000
 70
192
  0
VERTEX
  8
3D_Object
 10
784.000000
 20
-192.000000
 30
-1536.000000
 70
192
  0
VERTEX
  8
3D_Object
 10
544.000000
 20
-256.000000
 30
-1536.000000
 70
192
  0
VERTEX
  8
3D_Object
 10
912.000000
 20
336.000000
 30
-1536.000000
 70
192
  0
VERTEX
  8
3D_Object
 10
752.000000
 20
224.000000
 30
-1536.000000
 70
192
  0
VERTEX
  8
3D_Object
 10
528.000000
 20
80.000000
 30
-1536.000000
 70
192
  0
VERTEX
  8
3D_Object
 10
384.000000
 20
-80.000000
 30
-1536.000000
 70
192
  0
VERTEX
  8
3D_Object
 10
544.000000
 20
624.000000
 30
-1536.000000
 70
192
  0
VERTEX
  8
3D_Object
 10
384.000000
 20
512.000000
 30
-1536.000000
 70
192
  0
VERTEX
  8
3D_Object
 10
160.000000
 20
368.000000
 30
-1536.000000
 70
192
  0
VERTEX
  8
3D_Object
 10
16.000000
 20
208.000000
 30
-1536.000000
 70
192
  0
VERTEX
  8
3D_Object
 10
96.000000
 20
848.000000
 30
-1536.000000
 70
192
  0
VERTEX
  8
3D_Object
 10
-48.000000
 20
704.000000
 30
-1536.000000
 70
192
  0
VERTEX
  8
3D_Object
 10
-192.000000
 20
512.000000
 30
-1536.000000
 70
192
  0
VERTEX
  8
3D_Object
 10
-240.000000
 20
288.000000
 30
-1536.000000
 70
192
  0
VERTEX
  8
3D_Object
 10
-240.000000
 20
1024.000000
 30
-1536.000000
 70
192
  0
VERTEX
  8
3D_Object
 10
-464.000000
 20
832.000000
 30
-1536.000000
 70
192
  0
VERTEX
  8
3D_Object
 10
-528.000000
 20
608.000000
 30
-1536.000000
 70
192
  0
VERTEX
  8
3D_Object
 10
-512.000000
 20
352.000000
 30
-1536.000000
 70
192
  0
VERTEX
  8
3D_Object
 10
-496.000000
 20
1120.000000
 30
-1536.000000
 70
192
  0
VERTEX
  8
3D_Object
 10
-752.000000
 20
928.000000
 30
-1536.000000
 70
192
  0
VERTEX
  8
3D_Object
 10
-784.000000
 20
688.000000
 30
-1536.000000
 70
192
  0
VERTEX
  8
3D_Object
 10
-768.000000
 20
384.000000
 30
-1536.000000
 70
192
  0
VERTEX
  8
3D_Object
 10
-880.000000
 20
1168.000000
 30
-1536.000000
 70
192
  0
VERTEX
  8
3D_Object
 10
-1120.000000
 20
1184.000000
 30
-1536.000000
 70
192
  0
VERTEX
  8
3D_Object
 10
-1136.000000
 20
1024.000000
 30
-1536.000000
 70
192
  0
VERTEX
  8
3D_Object
 10
-1120.000000
 20
784.000000
 30
-1536.000000
 70
192
  0
VERTEX
  8
3D_Object
 10
-1104.000000
 20
480.000000
 30
-1536.000000
 70
192
  0
VERTEX
  8
3D_Object
 10
-1504.000000
 20
1264.000000
 30
-1536.000000
 70
192
  0
VERTEX
  8
3D_Object
 10
-1520.000000
 20
1104.000000
 30
-1536.000000
 70
192
  0
VERTEX
  8
3D_Object
 10
-1504.000000
 20
864.000000
 30
-1536.000000
 70
192
  0
VERTEX
  8
3D_Object
 10
-1488.000000
 20
560.000000
 30
-1536.000000
 70
192
  0
VERTEX
  8
3D_Object
 10
-1808.000000
 20
1344.000000
 30
-1536.000000
 70
192
  0
VERTEX
  8
3D_Object
 10
-1824.000000
 20
1184.000000
 30
-1536.000000
 70
192
  0
VERTEX
  8
3D_Object
 10
-1792.000000
 20
928.000000
 30
-1536.000000
 70
192
  0
VERTEX
  8
3D_Object
 10
-1792.000000
 20
592.000000
 30
-1536.000000
 70
192
  0
VERTEX
  8
3D_Object
 10
-768.000000
 20
128.000000
 30
-1536.000000
 70
192
  0
VERTEX
  8
3D_Object
 10
-1024.000000
 20
128.000000
 30
-1536.000000
 70
192
  0
VERTEX
  8
3D_Object
 10
-1280.000000
 20
128.000000
 30
-1536.000000
 70
192
  0
VERTEX
  8
3D_Object
 10
-1536.000000
 20
128.000000
 30
-1536.000000
 70
192
  0
VERTEX
  8
3D_Object
 10
-688.000000
 20
-208.000000
 30
-1536.000000
 70
192
  0
VERTEX
  8
3D_Object
 10
-928.000000
 20
-288.000000
 30
-1536.000000
 70
192
  0
VERTEX
  8
3D_Object
 10
-1152.000000
 20
-256.000000
 30
-1536.000000
 70
192
  0
VERTEX
  8
3D_Object
 10
-1488.000000
 20
-96.000000
 30
-1536.000000
 70
192
  0
VERTEX
  8
3D_Object
 10
-528.000000
 20
-464.000000
 30
-1536.000000
 70
192
  0
VERTEX
  8
3D_Object
 10
-752.000000
 20
-576.000000
 30
-1536.000000
 70
192
  0
VERTEX
  8
3D_Object
 10
-992.000000
 20
-608.000000
 30
-1536.000000
 70
192
  0
VERTEX
  8
3D_Object
 10
-1344.000000
 20
-320.000000
 30
-1536.000000
 70
192
  0
VERTEX
  8
3D_Object
 10
-1216.000000
 20
-688.000000
 30
-1536.000000
 70
192
  0
VERTEX
  8
3D_Object
 10
-320.000000
 20
-576.000000
 30
-1536.000000
 70
192
  0
VERTEX
  8
3D_Object
 10
-496.000000
 20
-752.000000
 30
-1536.000000
 70
192
  0
VERTEX
  8
3D_Object
 10
-720.000000
 20
-848.000000
 30
-1536.000000
 70
192
  0
VERTEX
  8
3D_Object
 10
-1104.000000
 20
-800.000000
 30
-1536.000000
 70
192
  0
VERTEX
  8
3D_Object
 10
-64.000000
 20
-640.000000
 30
-1536.000000
 70
192
  0
VERTEX
  8
3D_Object
 10
-192.000000
 20
-816.000000
 30
-1536.000000
 70
192
  0
VERTEX
  8
3D_Object
 10
-320.000000
 20
-976.000000
 30
-1536.000000
 70
192
  0
VERTEX
  8
3D_Object
 10
-560.000000
 20
-1056.000000
 30
-1536.000000
 70
192
  0
VERTEX
  8
3D_Object
 10
-864.000000
 20
-976.000000
 30
-1536.000000
 70
192
  0
VERTEX
  8
3D_Object
 10
192.000000
 20
-656.000000
 30
-1536.000000
 70
192
  0
VERTEX
  8
3D_Object
 10
112.000000
 20
-864.000000
 30
-1536.000000
 70
192
  0
VERTEX
  8
3D_Object
 10
48.000000
 20
-1008.000000
 30
-1536.000000
 70
192
  0
VERTEX
  8
3D_Object
 10
-320.000000
 20
-1120.000000
 30
-1536.000000
 70
192
  0
VERTEX
  8
3D_Object
 10
448.000000
 20
-640.000000
 30
-1536.000000
 70
192
  0
VERTEX
  8
3D_Object
 10
432.000000
 20
-864.000000
 30
-1536.000000
 70
192
  0
VERTEX
  8
3D_Object
 10
416.000000
 20
-1040.000000
 30
-1536.000000
 70
192
  0
VERTEX
  8
3D_Object
 10
368.000000
 20
-1184.000000
 30
-1536.000000
 70
192
  0
VERTEX
  8
3D_Object
 10
32.000000
 20
-1168.000000
 30
-1536.000000
 70
192
  0
VERTEX
  8
3D_Object
 10
-48.000000
 20
-208.000000
 30
-1536.000000
 70
192
  0
VERTEX
  8
3D_Object
 10
-512.000000
 20
0.000000
 30
-1536.000000
 70
192
  0
VERTEX
  8
3D_Object
 10
  0
 20
  0
 30
  0
 70
128
 71
  1
 72
  2
 73
  3
  0
VERTEX
  8
3D_Object
 10
  0
 20
  0
 30
  0
 70
128
 71
  1
 72
  3
 73
  4
  0
VERTEX
  8
3D_Object
 10
  0
 20
  0
 30
  0
 70
128
 71
  5
 72
  6
 73
  7
  0
VERTEX
  8
3D_Object
 10
  0
 20
  0
 30
  0
 70
128
 71
  8
 72
  6
 73
  9
  0
VERTEX
  8
3D_Object
 10
  0
 20
  0
 30
  0
 70
128
 71
 10
 72
 11
 73
  8
  0
VERTEX
  8
3D_Object
 10
  0
 20
  0
 30
  0
 70
128
 71
 12
 72
 13
 73
 14
  0
VERTEX
  8
3D_Object
 10
  0
 20
  0
 30
  0
 70
128
 71
 15
 72
 16
 73
 17
  0
VERTEX
  8
3D_Object
 10
  0
 20
  0
 30
  0
 70
128
 71
 17
 72
 16
 73
 18
  0
VERTEX
  8
3D_Object
 10
  0
 20
  0
 30
  0
 70
128
 71
 17
 72
 18
 73
 19
  0
VERTEX
  8
3D_Object
 10
  0
 20
  0
 30
  0
 70
128
 71
 19
 72
 18
 73
 20
  0
VERTEX
  8
3D_Object
 10
  0
 20
  0
 30
  0
 70
128
 71
 19
 72
 20
 73
 21
  0
VERTEX
  8
3D_Object
 10
  0
 20
  0
 30
  0
 70
128
 71
 21
 72
 20
 73
 22
  0
VERTEX
  8
3D_Object
 10
  0
 20
  0
 30
  0
 70
128
 71
 21
 72
 22
 73
 23
  0
VERTEX
  8
3D_Object
 10
  0
 20
  0
 30
  0
 70
128
 71
 23
 72
 22
 73
 24
  0
VERTEX
  8
3D_Object
 10
  0
 20
  0
 30
  0
 70
128
 71
 12
 72
 14
 73
 25
  0
VERTEX
  8
3D_Object
 10
  0
 20
  0
 30
  0
 70
128
 71
 13
 72
 26
 73
 27
  0
VERTEX
  8
3D_Object
 10
  0
 20
  0
 30
  0
 70
128
 71
 13
 72
 27
 73
 14
  0
VERTEX
  8
3D_Object
 10
  0
 20
  0
 30
  0
 70
128
 71
 26
 72
 28
 73
 29
  0
VERTEX
  8
3D_Object
 10
  0
 20
  0
 30
  0
 70
128
 71
 26
 72
 29
 73
 27
  0
VERTEX
  8
3D_Object
 10
  0
 20
  0
 30
  0
 70
128
 71
 28
 72
 23
 73
 24
  0
VERTEX
  8
3D_Object
 10
  0
 20
  0
 30
  0
 70
128
 71
 28
 72
 24
 73
 29
  0
VERTEX
  8
3D_Object
 10
  0
 20
  0
 30
  0
 70
128
 71
 10
 72
  8
 73
  9
  0
VERTEX
  8
3D_Object
 10
  0
 20
  0
 30
  0
 70
128
 71
 11
 72
 30
 73
 31
  0
VERTEX
  8
3D_Object
 10
  0
 20
  0
 30
  0
 70
128
 71
 11
 72
 31
 73
  8
  0
VERTEX
  8
3D_Object
 10
  0
 20
  0
 30
  0
 70
128
 71
 30
 72
 32
 73
 33
  0
VERTEX
  8
3D_Object
 10
  0
 20
  0
 30
  0
 70
128
 71
 30
 72
 33
 73
 31
  0
VERTEX
  8
3D_Object
 10
  0
 20
  0
 30
  0
 70
128
 71
 34
 72
 33
 73
 35
  0
VERTEX
  8
3D_Object
 10
  0
 20
  0
 30
  0
 70
128
 71
 35
 72
 33
 73
 32
  0
VERTEX
  8
3D_Object
 10
  0
 20
  0
 30
  0
 70
128
 71
 36
 72
 33
 73
 34
  0
VERTEX
  8
3D_Object
 10
  0
 20
  0
 30
  0
 70
128
 71
 12
 72
 33
 73
 36
  0
VERTEX
  8
3D_Object
 10
  0
 20
  0
 30
  0
 70
128
 71
 25
 72
 33
 73
 12
  0
VERTEX
  8
3D_Object
 10
  0
 20
  0
 30
  0
 70
128
 71
 37
 72
  6
 73
  8
  0
VERTEX
  8
3D_Object
 10
  0
 20
  0
 30
  0
 70
128
 71
 37
 72
  7
 73
  6
  0
VERTEX
  8
3D_Object
 10
  0
 20
  0
 30
  0
 70
128
 71
 38
 72
  7
 73
 37
  0
VERTEX
  8
3D_Object
 10
  0
 20
  0
 30
  0
 70
128
 71
 38
 72
 39
 73
  7
  0
VERTEX
  8
3D_Object
 10
  0
 20
  0
 30
  0
 70
128
 71
 40
 72
 39
 73
 38
  0
VERTEX
  8
3D_Object
 10
  0
 20
  0
 30
  0
 70
128
 71
 40
 72
 16
 73
 39
  0
VERTEX
  8
3D_Object
 10
  0
 20
  0
 30
  0
 70
128
 71
 18
 72
 16
 73
 40
  0
VERTEX
  8
3D_Object
 10
  0
 20
  0
 30
  0
 70
128
 71
 31
 72
 37
 73
  8
  0
VERTEX
  8
3D_Object
 10
  0
 20
  0
 30
  0
 70
128
 71
 41
 72
 37
 73
 31
  0
VERTEX
  8
3D_Object
 10
  0
 20
  0
 30
  0
 70
128
 71
 41
 72
 38
 73
 37
  0
VERTEX
  8
3D_Object
 10
  0
 20
  0
 30
  0
 70
128
 71
 42
 72
 38
 73
 41
  0
VERTEX
  8
3D_Object
 10
  0
 20
  0
 30
  0
 70
128
 71
 42
 72
 40
 73
 38
  0
VERTEX
  8
3D_Object
 10
  0
 20
  0
 30
  0
 70
128
 71
 43
 72
 40
 73
 42
  0
VERTEX
  8
3D_Object
 10
  0
 20
  0
 30
  0
 70
128
 71
 43
 72
 18
 73
 40
  0
VERTEX
  8
3D_Object
 10
  0
 20
  0
 30
  0
 70
128
 71
 20
 72
 18
 73
 43
  0
VERTEX
  8
3D_Object
 10
  0
 20
  0
 30
  0
 70
128
 71
 33
 72
 41
 73
 31
  0
VERTEX
  8
3D_Object
 10
  0
 20
  0
 30
  0
 70
128
 71
 44
 72
 41
 73
 33
  0
VERTEX
  8
3D_Object
 10
  0
 20
  0
 30
  0
 70
128
 71
 44
 72
 42
 73
 41
  0
VERTEX
  8
3D_Object
 10
  0
 20
  0
 30
  0
 70
128
 71
 45
 72
 42
 73
 44
  0
VERTEX
  8
3D_Object
 10
  0
 20
  0
 30
  0
 70
128
 71
 45
 72
 43
 73
 42
  0
VERTEX
  8
3D_Object
 10
  0
 20
  0
 30
  0
 70
128
 71
 46
 72
 43
 73
 45
  0
VERTEX
  8
3D_Object
 10
  0
 20
  0
 30
  0
 70
128
 71
 46
 72
 20
 73
 43
  0
VERTEX
  8
3D_Object
 10
  0
 20
  0
 30
  0
 70
128
 71
 22
 72
 20
 73
 46
  0
VERTEX
  8
3D_Object
 10
  0
 20
  0
 30
  0
 70
128
 71
 25
 72
 44
 73
 33
  0
VERTEX
  8
3D_Object
 10
  0
 20
  0
 30
  0
 70
128
 71
 14
 72
 44
 73
 25
  0
VERTEX
  8
3D_Object
 10
  0
 20
  0
 30
  0
 70
128
 71
 14
 72
 45
 73
 44
  0
VERTEX
  8
3D_Object
 10
  0
 20
  0
 30
  0
 70
128
 71
 27
 72
 45
 73
 14
  0
VERTEX
  8
3D_Object
 10
  0
 20
  0
 30
  0
 70
128
 71
 27
 72
 46
 73
 45
  0
VERTEX
  8
3D_Object
 10
  0
 20
  0
 30
  0
 70
128
 71
 29
 72
 46
 73
 27
  0
VERTEX
  8
3D_Object
 10
  0
 20
  0
 30
  0
 70
128
 71
 29
 72
 22
 73
 46
  0
VERTEX
  8
3D_Object
 10
  0
 20
  0
 30
  0
 70
128
 71
 24
 72
 22
 73
 29
  0
VERTEX
  8
3D_Object
 10
  0
 20
  0
 30
  0
 70
128
 71
 10
 72
  9
 73
 47
  0
VERTEX
  8
3D_Object
 10
  0
 20
  0
 30
  0
 70
128
 71
 47
 72
  9
 73
  6
  0
VERTEX
  8
3D_Object
 10
  0
 20
  0
 30
  0
 70
128
 71
 47
 72
  6
 73
  5
  0
VERTEX
  8
3D_Object
 10
  0
 20
  0
 30
  0
 70
128
 71
 15
 72
 39
 73
 16
  0
VERTEX
  8
3D_Object
 10
  0
 20
  0
 30
  0
 70
128
 71
 48
 72
 49
 73
 39
  0
VERTEX
  8
3D_Object
 10
  0
 20
  0
 30
  0
 70
128
 71
 50
 72
 48
 73
 39
  0
VERTEX
  8
3D_Object
 10
  0
 20
  0
 30
  0
 70
128
 71
 51
 72
 50
 73
 39
  0
VERTEX
  8
3D_Object
 10
  0
 20
  0
 30
  0
 70
128
 71
 39
 72
 15
 73
 51
  0
VERTEX
  8
3D_Object
 10
  0
 20
  0
 30
  0
 70
128
 71
  7
 72
 39
 73
  5
  0
VERTEX
  8
3D_Object
 10
  0
 20
  0
 30
  0
 70
128
 71
 39
 72
 49
 73
  5
  0
VERTEX
  8
3D_Object
 10
  0
 20
  0
 30
  0
 70
128
 71
 21
 72
 52
 73
 53
  0
VERTEX
  8
3D_Object
 10
  0
 20
  0
 30
  0
 70
128
 71
 19
 72
 21
 73
 53
  0
VERTEX
  8
3D_Object
 10
  0
 20
  0
 30
  0
 70
128
 71
 23
 72
 28
 73
 52
  0
VERTEX
  8
3D_Object
 10
  0
 20
  0
 30
  0
 70
128
 71
 21
 72
 23
 73
 52
  0
VERTEX
  8
3D_Object
 10
  0
 20
  0
 30
  0
 70
128
 71
 54
 72
 36
 73
 34
  0
VERTEX
  8
3D_Object
 10
  0
 20
  0
 30
  0
 70
128
 71
 54
 72
 34
 73
 55
  0
VERTEX
  8
3D_Object
 10
  0
 20
  0
 30
  0
 70
128
 71
 55
 72
 34
 73
 35
  0
VERTEX
  8
3D_Object
 10
  0
 20
  0
 30
  0
 70
128
 71
 55
 72
 35
 73
 56
  0
VERTEX
  8
3D_Object
 10
  0
 20
  0
 30
  0
 70
128
 71
 56
 72
 35
 73
 32
  0
VERTEX
  8
3D_Object
 10
  0
 20
  0
 30
  0
 70
128
 71
 56
 72
 32
 73
 57
  0
VERTEX
  8
3D_Object
 10
  0
 20
  0
 30
  0
 70
128
 71
 58
 72
 54
 73
 55
  0
VERTEX
  8
3D_Object
 10
  0
 20
  0
 30
  0
 70
128
 71
 58
 72
 55
 73
  2
  0
VERTEX
  8
3D_Object
 10
  0
 20
  0
 30
  0
 70
128
 71
  2
 72
 55
 73
 56
  0
VERTEX
  8
3D_Object
 10
  0
 20
  0
 30
  0
 70
128
 71
  2
 72
 56
 73
  3
  0
VERTEX
  8
3D_Object
 10
  0
 20
  0
 30
  0
 70
128
 71
  3
 72
 56
 73
 57
  0
VERTEX
  8
3D_Object
 10
  0
 20
  0
 30
  0
 70
128
 71
  3
 72
 57
 73
 59
  0
VERTEX
  8
3D_Object
 10
  0
 20
  0
 30
  0
 70
128
 71
 60
 72
 58
 73
  2
  0
VERTEX
  8
3D_Object
 10
  0
 20
  0
 30
  0
 70
128
 71
 60
 72
  2
 73
  1
  0
VERTEX
  8
3D_Object
 10
  0
 20
  0
 30
  0
 70
128
 71
  4
 72
  3
 73
 59
  0
VERTEX
  8
3D_Object
 10
  0
 20
  0
 30
  0
 70
128
 71
  4
 72
 59
 73
 61
  0
VERTEX
  8
3D_Object
 10
  0
 20
  0
 30
  0
 70
128
 71
 62
 72
 60
 73
  1
  0
VERTEX
  8
3D_Object
 10
  0
 20
  0
 30
  0
 70
128
 71
 62
 72
  1
 73
 63
  0
VERTEX
  8
3D_Object
 10
  0
 20
  0
 30
  0
 70
128
 71
 63
 72
  1
 73
  4
  0
VERTEX
  8
3D_Object
 10
  0
 20
  0
 30
  0
 70
128
 71
 63
 72
  4
 73
 64
  0
VERTEX
  8
3D_Object
 10
  0
 20
  0
 30
  0
 70
128
 71
 64
 72
  4
 73
 61
  0
VERTEX
  8
3D_Object
 10
  0
 20
  0
 30
  0
 70
128
 71
 64
 72
 61
 73
 65
  0
VERTEX
  8
3D_Object
 10
  0
 20
  0
 30
  0
 70
128
 71
 66
 72
 62
 73
 63
  0
VERTEX
  8
3D_Object
 10
  0
 20
  0
 30
  0
 70
128
 71
 66
 72
 63
 73
 67
  0
VERTEX
  8
3D_Object
 10
  0
 20
  0
 30
  0
 70
128
 71
 67
 72
 63
 73
 64
  0
VERTEX
  8
3D_Object
 10
  0
 20
  0
 30
  0
 70
128
 71
 67
 72
 64
 73
 68
  0
VERTEX
  8
3D_Object
 10
  0
 20
  0
 30
  0
 70
128
 71
 68
 72
 64
 73
 65
  0
VERTEX
  8
3D_Object
 10
  0
 20
  0
 30
  0
 70
128
 71
 68
 72
 65
 73
 69
  0
VERTEX
  8
3D_Object
 10
  0
 20
  0
 30
  0
 70
128
 71
 70
 72
 66
 73
 67
  0
VERTEX
  8
3D_Object
 10
  0
 20
  0
 30
  0
 70
128
 71
 70
 72
 67
 73
 71
  0
VERTEX
  8
3D_Object
 10
  0
 20
  0
 30
  0
 70
128
 71
 71
 72
 67
 73
 68
  0
VERTEX
  8
3D_Object
 10
  0
 20
  0
 30
  0
 70
128
 71
 71
 72
 68
 73
 72
  0
VERTEX
  8
3D_Object
 10
  0
 20
  0
 30
  0
 70
128
 71
 72
 72
 68
 73
 69
  0
VERTEX
  8
3D_Object
 10
  0
 20
  0
 30
  0
 70
128
 71
 72
 72
 69
 73
 73
  0
VERTEX
  8
3D_Object
 10
  0
 20
  0
 30
  0
 70
128
 71
 74
 72
 70
 73
 71
  0
VERTEX
  8
3D_Object
 10
  0
 20
  0
 30
  0
 70
128
 71
 74
 72
 71
 73
 75
  0
VERTEX
  8
3D_Object
 10
  0
 20
  0
 30
  0
 70
128
 71
 75
 72
 71
 73
 72
  0
VERTEX
  8
3D_Object
 10
  0
 20
  0
 30
  0
 70
128
 71
 75
 72
 72
 73
 76
  0
VERTEX
  8
3D_Object
 10
  0
 20
  0
 30
  0
 70
128
 71
 76
 72
 72
 73
 73
  0
VERTEX
  8
3D_Object
 10
  0
 20
  0
 30
  0
 70
128
 71
 76
 72
 73
 73
 77
  0
VERTEX
  8
3D_Object
 10
  0
 20
  0
 30
  0
 70
128
 71
 78
 72
 74
 73
 75
  0
VERTEX
  8
3D_Object
 10
  0
 20
  0
 30
  0
 70
128
 71
 78
 72
 75
 73
 79
  0
VERTEX
  8
3D_Object
 10
  0
 20
  0
 30
  0
 70
128
 71
 79
 72
 75
 73
 76
  0
VERTEX
  8
3D_Object
 10
  0
 20
  0
 30
  0
 70
128
 71
 79
 72
 76
 73
 80
  0
VERTEX
  8
3D_Object
 10
  0
 20
  0
 30
  0
 70
128
 71
 80
 72
 76
 73
 77
  0
VERTEX
  8
3D_Object
 10
  0
 20
  0
 30
  0
 70
128
 71
 80
 72
 77
 73
 81
  0
VERTEX
  8
3D_Object
 10
  0
 20
  0
 30
  0
 70
128
 71
 82
 72
 78
 73
 79
  0
VERTEX
  8
3D_Object
 10
  0
 20
  0
 30
  0
 70
128
 71
 82
 72
 79
 73
 83
  0
VERTEX
  8
3D_Object
 10
  0
 20
  0
 30
  0
 70
128
 71
 83
 72
 79
 73
 80
  0
VERTEX
  8
3D_Object
 10
  0
 20
  0
 30
  0
 70
128
 71
 83
 72
 80
 73
 84
  0
VERTEX
  8
3D_Object
 10
  0
 20
  0
 30
  0
 70
128
 71
 84
 72
 80
 73
 81
  0
VERTEX
  8
3D_Object
 10
  0
 20
  0
 30
  0
 70
128
 71
 84
 72
 81
 73
 85
  0
VERTEX
  8
3D_Object
 10
  0
 20
  0
 30
  0
 70
128
 71
 86
 72
 82
 73
 83
  0
VERTEX
  8
3D_Object
 10
  0
 20
  0
 30
  0
 70
128
 71
 86
 72
 83
 73
 87
  0
VERTEX
  8
3D_Object
 10
  0
 20
  0
 30
  0
 70
128
 71
 87
 72
 83
 73
 84
  0
VERTEX
  8
3D_Object
 10
  0
 20
  0
 30
  0
 70
128
 71
 87
 72
 84
 73
 88
  0
VERTEX
  8
3D_Object
 10
  0
 20
  0
 30
  0
 70
128
 71
 88
 72
 84
 73
 85
  0
VERTEX
  8
3D_Object
 10
  0
 20
  0
 30
  0
 70
128
 71
 88
 72
 85
 73
 89
  0
VERTEX
  8
3D_Object
 10
  0
 20
  0
 30
  0
 70
128
 71
 90
 72
 86
 73
 87
  0
VERTEX
  8
3D_Object
 10
  0
 20
  0
 30
  0
 70
128
 71
 90
 72
 87
 73
 91
  0
VERTEX
  8
3D_Object
 10
  0
 20
  0
 30
  0
 70
128
 71
 91
 72
 87
 73
 88
  0
VERTEX
  8
3D_Object
 10
  0
 20
  0
 30
  0
 70
128
 71
 91
 72
 88
 73
 92
  0
VERTEX
  8
3D_Object
 10
  0
 20
  0
 30
  0
 70
128
 71
 92
 72
 88
 73
 89
  0
VERTEX
  8
3D_Object
 10
  0
 20
  0
 30
  0
 70
128
 71
 92
 72
 89
 73
 93
  0
VERTEX
  8
3D_Object
 10
  0
 20
  0
 30
  0
 70
128
 71
 94
 72
 90
 73
 91
  0
VERTEX
  8
3D_Object
 10
  0
 20
  0
 30
  0
 70
128
 71
 94
 72
 91
 73
 95
  0
VERTEX
  8
3D_Object
 10
  0
 20
  0
 30
  0
 70
128
 71
 95
 72
 91
 73
 92
  0
VERTEX
  8
3D_Object
 10
  0
 20
  0
 30
  0
 70
128
 71
 95
 72
 92
 73
 96
  0
VERTEX
  8
3D_Object
 10
  0
 20
  0
 30
  0
 70
128
 71
 96
 72
 92
 73
 93
  0
VERTEX
  8
3D_Object
 10
  0
 20
  0
 30
  0
 70
128
 71
 96
 72
 93
 73
 97
  0
VERTEX
  8
3D_Object
 10
  0
 20
  0
 30
  0
 70
128
 71
 95
 72
 98
 73
 94
  0
VERTEX
  8
3D_Object
 10
  0
 20
  0
 30
  0
 70
128
 71
 99
 72
 98
 73
 95
  0
VERTEX
  8
3D_Object
 10
  0
 20
  0
 30
  0
 70
128
 71
 99
 72
 95
 73
100
  0
VERTEX
  8
3D_Object
 10
  0
 20
  0
 30
  0
 70
128
 71
100
 72
 95
 73
 96
  0
VERTEX
  8
3D_Object
 10
  0
 20
  0
 30
  0
 70
128
 71
100
 72
 96
 73
101
  0
VERTEX
  8
3D_Object
 10
  0
 20
  0
 30
  0
 70
128
 71
101
 72
 96
 73
 97
  0
VERTEX
  8
3D_Object
 10
  0
 20
  0
 30
  0
 70
128
 71
101
 72
 97
 73
102
  0
VERTEX
  8
3D_Object
 10
  0
 20
  0
 30
  0
 70
128
 71
103
 72
 99
 73
100
  0
VERTEX
  8
3D_Object
 10
  0
 20
  0
 30
  0
 70
128
 71
103
 72
100
 73
104
  0
VERTEX
  8
3D_Object
 10
  0
 20
  0
 30
  0
 70
128
 71
104
 72
100
 73
101
  0
VERTEX
  8
3D_Object
 10
  0
 20
  0
 30
  0
 70
128
 71
104
 72
101
 73
105
  0
VERTEX
  8
3D_Object
 10
  0
 20
  0
 30
  0
 70
128
 71
105
 72
101
 73
102
  0
VERTEX
  8
3D_Object
 10
  0
 20
  0
 30
  0
 70
128
 71
105
 72
102
 73
106
  0
VERTEX
  8
3D_Object
 10
  0
 20
  0
 30
  0
 70
128
 71
107
 72
103
 73
104
  0
VERTEX
  8
3D_Object
 10
  0
 20
  0
 30
  0
 70
128
 71
107
 72
104
 73
108
  0
VERTEX
  8
3D_Object
 10
  0
 20
  0
 30
  0
 70
128
 71
108
 72
104
 73
105
  0
VERTEX
  8
3D_Object
 10
  0
 20
  0
 30
  0
 70
128
 71
108
 72
105
 73
109
  0
VERTEX
  8
3D_Object
 10
  0
 20
  0
 30
  0
 70
128
 71
109
 72
105
 73
106
  0
VERTEX
  8
3D_Object
 10
  0
 20
  0
 30
  0
 70
128
 71
109
 72
106
 73
110
  0
VERTEX
  8
3D_Object
 10
  0
 20
  0
 30
  0
 70
128
 71
 51
 72
107
 73
108
  0
VERTEX
  8
3D_Object
 10
  0
 20
  0
 30
  0
 70
128
 71
 51
 72
108
 73
 50
  0
VERTEX
  8
3D_Object
 10
  0
 20
  0
 30
  0
 70
128
 71
 50
 72
108
 73
109
  0
VERTEX
  8
3D_Object
 10
  0
 20
  0
 30
  0
 70
128
 71
 50
 72
109
 73
 48
  0
VERTEX
  8
3D_Object
 10
  0
 20
  0
 30
  0
 70
128
 71
 48
 72
109
 73
110
  0
VERTEX
  8
3D_Object
 10
  0
 20
  0
 30
  0
 70
128
 71
 48
 72
110
 73
 49
  0
VERTEX
  8
3D_Object
 10
  0
 20
  0
 30
  0
 70
128
 71
 97
 72
111
 73
112
  0
VERTEX
  8
3D_Object
 10
  0
 20
  0
 30
  0
 70
128
 71
 97
 72
112
 73
102
  0
VERTEX
  8
3D_Object
 10
  0
 20
  0
 30
  0
 70
128
 71
102
 72
112
 73
113
  0
VERTEX
  8
3D_Object
 10
  0
 20
  0
 30
  0
 70
128
 71
102
 72
113
 73
106
  0
VERTEX
  8
3D_Object
 10
  0
 20
  0
 30
  0
 70
128
 71
106
 72
113
 73
114
  0
VERTEX
  8
3D_Object
 10
  0
 20
  0
 30
  0
 70
128
 71
106
 72
114
 73
110
  0
VERTEX
  8
3D_Object
 10
  0
 20
  0
 30
  0
 70
128
 71
111
 72
115
 73
116
  0
VERTEX
  8
3D_Object
 10
  0
 20
  0
 30
  0
 70
128
 71
111
 72
116
 73
112
  0
VERTEX
  8
3D_Object
 10
  0
 20
  0
 30
  0
 70
128
 71
112
 72
116
 73
117
  0
VERTEX
  8
3D_Object
 10
  0
 20
  0
 30
  0
 70
128
 71
112
 72
117
 73
113
  0
VERTEX
  8
3D_Object
 10
  0
 20
  0
 30
  0
 70
128
 71
113
 72
117
 73
118
  0
VERTEX
  8
3D_Object
 10
  0
 20
  0
 30
  0
 70
128
 71
113
 72
118
 73
114
  0
VERTEX
  8
3D_Object
 10
  0
 20
  0
 30
  0
 70
128
 71
115
 72
119
 73
120
  0
VERTEX
  8
3D_Object
 10
  0
 20
  0
 30
  0
 70
128
 71
115
 72
120
 73
116
  0
VERTEX
  8
3D_Object
 10
  0
 20
  0
 30
  0
 70
128
 71
116
 72
120
 73
121
  0
VERTEX
  8
3D_Object
 10
  0
 20
  0
 30
  0
 70
128
 71
116
 72
121
 73
117
  0
VERTEX
  8
3D_Object
 10
  0
 20
  0
 30
  0
 70
128
 71
117
 72
121
 73
122
  0
VERTEX
  8
3D_Object
 10
  0
 20
  0
 30
  0
 70
128
 71
117
 72
122
 73
118
  0
VERTEX
  8
3D_Object
 10
  0
 20
  0
 30
  0
 70
128
 71
123
 72
122
 73
121
  0
VERTEX
  8
3D_Object
 10
  0
 20
  0
 30
  0
 70
128
 71
119
 72
124
 73
125
  0
VERTEX
  8
3D_Object
 10
  0
 20
  0
 30
  0
 70
128
 71
119
 72
125
 73
120
  0
VERTEX
  8
3D_Object
 10
  0
 20
  0
 30
  0
 70
128
 71
120
 72
125
 73
126
  0
VERTEX
  8
3D_Object
 10
  0
 20
  0
 30
  0
 70
128
 71
120
 72
126
 73
121
  0
VERTEX
  8
3D_Object
 10
  0
 20
  0
 30
  0
 70
128
 71
121
 72
126
 73
127
  0
VERTEX
  8
3D_Object
 10
  0
 20
  0
 30
  0
 70
128
 71
121
 72
127
 73
123
  0
VERTEX
  8
3D_Object
 10
  0
 20
  0
 30
  0
 70
128
 71
124
 72
128
 73
129
  0
VERTEX
  8
3D_Object
 10
  0
 20
  0
 30
  0
 70
128
 71
124
 72
129
 73
125
  0
VERTEX
  8
3D_Object
 10
  0
 20
  0
 30
  0
 70
128
 71
125
 72
129
 73
130
  0
VERTEX
  8
3D_Object
 10
  0
 20
  0
 30
  0
 70
128
 71
125
 72
130
 73
126
  0
VERTEX
  8
3D_Object
 10
  0
 20
  0
 30
  0
 70
128
 71
126
 72
130
 73
131
  0
VERTEX
  8
3D_Object
 10
  0
 20
  0
 30
  0
 70
128
 71
126
 72
131
 73
132
  0
VERTEX
  8
3D_Object
 10
  0
 20
  0
 30
  0
 70
128
 71
132
 72
127
 73
126
  0
VERTEX
  8
3D_Object
 10
  0
 20
  0
 30
  0
 70
128
 71
128
 72
133
 73
134
  0
VERTEX
  8
3D_Object
 10
  0
 20
  0
 30
  0
 70
128
 71
128
 72
134
 73
129
  0
VERTEX
  8
3D_Object
 10
  0
 20
  0
 30
  0
 70
128
 71
129
 72
134
 73
135
  0
VERTEX
  8
3D_Object
 10
  0
 20
  0
 30
  0
 70
128
 71
129
 72
135
 73
130
  0
VERTEX
  8
3D_Object
 10
  0
 20
  0
 30
  0
 70
128
 71
130
 72
135
 73
136
  0
VERTEX
  8
3D_Object
 10
  0
 20
  0
 30
  0
 70
128
 71
130
 72
136
 73
131
  0
VERTEX
  8
3D_Object
 10
  0
 20
  0
 30
  0
 70
128
 71
133
 72
137
 73
138
  0
VERTEX
  8
3D_Object
 10
  0
 20
  0
 30
  0
 70
128
 71
133
 72
138
 73
134
  0
VERTEX
  8
3D_Object
 10
  0
 20
  0
 30
  0
 70
128
 71
134
 72
138
 73
139
  0
VERTEX
  8
3D_Object
 10
  0
 20
  0
 30
  0
 70
128
 71
134
 72
139
 73
135
  0
VERTEX
  8
3D_Object
 10
  0
 20
  0
 30
  0
 70
128
 71
135
 72
139
 73
140
  0
VERTEX
  8
3D_Object
 10
  0
 20
  0
 30
  0
 70
128
 71
135
 72
140
 73
141
  0
VERTEX
  8
3D_Object
 10
  0
 20
  0
 30
  0
 70
128
 71
137
 72
 73
 73
 69
  0
VERTEX
  8
3D_Object
 10
  0
 20
  0
 30
  0
 70
128
 71
137
 72
 69
 73
138
  0
VERTEX
  8
3D_Object
 10
  0
 20
  0
 30
  0
 70
128
 71
138
 72
 69
 73
 65
  0
VERTEX
  8
3D_Object
 10
  0
 20
  0
 30
  0
 70
128
 71
138
 72
 65
 73
139
  0
VERTEX
  8
3D_Object
 10
  0
 20
  0
 30
  0
 70
128
 71
139
 72
 65
 73
 61
  0
VERTEX
  8
3D_Object
 10
  0
 20
  0
 30
  0
 70
128
 71
139
 72
 61
 73
140
  0
VERTEX
  8
3D_Object
 10
  0
 20
  0
 30
  0
 70
128
 71
141
 72
136
 73
135
  0
VERTEX
  8
3D_Object
 10
  0
 20
  0
 30
  0
 70
128
 71
 11
 72
136
 73
141
  0
VERTEX
  8
3D_Object
 10
  0
 20
  0
 30
  0
 70
128
 71
 11
 72
131
 73
136
  0
VERTEX
  8
3D_Object
 10
  0
 20
  0
 30
  0
 70
128
 71
 11
 72
132
 73
131
  0
VERTEX
  8
3D_Object
 10
  0
 20
  0
 30
  0
 70
128
 71
 10
 72
127
 73
132
  0
VERTEX
  8
3D_Object
 10
  0
 20
  0
 30
  0
 70
128
 71
 10
 72
123
 73
127
  0
VERTEX
  8
3D_Object
 10
  0
 20
  0
 30
  0
 70
128
 71
 10
 72
122
 73
123
  0
VERTEX
  8
3D_Object
 10
  0
 20
  0
 30
  0
 70
128
 71
 10
 72
118
 73
122
  0
VERTEX
  8
3D_Object
 10
  0
 20
  0
 30
  0
 70
128
 71
 47
 72
114
 73
118
  0
VERTEX
  8
3D_Object
 10
  0
 20
  0
 30
  0
 70
128
 71
 47
 72
110
 73
114
  0
VERTEX
  8
3D_Object
 10
  0
 20
  0
 30
  0
 70
128
 71
  5
 72
 49
 73
110
  0
VERTEX
  8
3D_Object
 10
  0
 20
  0
 30
  0
 70
128
 71
 30
 72
141
 73
140
  0
VERTEX
  8
3D_Object
 10
  0
 20
  0
 30
  0
 70
128
 71
 30
 72
140
 73
 61
  0
VERTEX
  8
3D_Object
 10
  0
 20
  0
 30
  0
 70
128
 71
 30
 72
 61
 73
 59
  0
VERTEX
  8
3D_Object
 10
  0
 20
  0
 30
  0
 70
128
 71
 30
 72
 59
 73
 57
  0
VERTEX
  8
3D_Object
 10
  0
 20
  0
 30
  0
 70
128
 71
 30
 72
 57
 73
 32
  0
VERTEX
  8
3D_Object
 10
  0
 20
  0
 30
  0
 70
128
 71
 11
 72
141
 73
 30
  0
VERTEX
  8
3D_Object
 10
  0
 20
  0
 30
  0
 70
128
 71
 11
 72
 10
 73
132
  0
VERTEX
  8
3D_Object
 10
  0
 20
  0
 30
  0
 70
128
 71
 10
 72
 47
 73
118
  0
VERTEX
  8
3D_Object
 10
  0
 20
  0
 30
  0
 70
128
 71
 47
 72
  5
 73
110
  0
VERTEX
  8
3D_Object
 10
  0
 20
  0
 30
  0
 70
128
 71
142
 72
 85
 73
 81
  0
VERTEX
  8
3D_Object
 10
  0
 20
  0
 30
  0
 70
128
 71
142
 72
 89
 73
 85
  0
VERTEX
  8
3D_Object
 10
  0
 20
  0
 30
  0
 70
128
 71
142
 72
 93
 73
 89
  0
VERTEX
  8
3D_Object
 10
  0
 20
  0
 30
  0
 70
128
 71
143
 72
 97
 73
 93
  0
VERTEX
  8
3D_Object
 10
  0
 20
  0
 30
  0
 70
128
 71
143
 72
111
 73
 97
  0
VERTEX
  8
3D_Object
 10
  0
 20
  0
 30
  0
 70
128
 71
143
 72
115
 73
111
  0
VERTEX
  8
3D_Object
 10
  0
 20
  0
 30
  0
 70
128
 71
143
 72
119
 73
115
  0
VERTEX
  8
3D_Object
 10
  0
 20
  0
 30
  0
 70
128
 71
142
 72
128
 73
124
  0
VERTEX
  8
3D_Object
 10
  0
 20
  0
 30
  0
 70
128
 71
142
 72
124
 73
119
  0
VERTEX
  8
3D_Object
 10
  0
 20
  0
 30
  0
 70
128
 71
142
 72
119
 73
143
  0
VERTEX
  8
3D_Object
 10
  0
 20
  0
 30
  0
 70
128
 71
142
 72
143
 73
 93
  0
VERTEX
  8
3D_Object
 10
  0
 20
  0
 30
  0
 70
128
 71
142
 72
133
 73
128
  0
VERTEX
  8
3D_Object
 10
  0
 20
  0
 30
  0
 70
128
 71
142
 72
137
 73
133
  0
VERTEX
  8
3D_Object
 10
  0
 20
  0
 30
  0
 70
128
 71
142
 72
 73
 73
137
  0
VERTEX
  8
3D_Object
 10
  0
 20
  0
 30
  0
 70
128
 71
142
 72
 77
 73
 73
  0
VERTEX
  8
3D_Object
 10
  0
 20
  0
 30
  0
 70
128
 71
142
 72
 81
 73
 77
  0
VERTEX
  8
3D_Object
 10
  0
 20
  0
 30
  0
 70
128
 71
 82
 72
 53
 73
 52
  0
VERTEX
  8
3D_Object
 10
  0
 20
  0
 30
  0
 70
128
 71
 78
 72
 82
 73
 52
  0
VERTEX
  8
3D_Object
 10
  0
 20
  0
 30
  0
 70
128
 71
 74
 72
 78
 73
 52
  0
VERTEX
  8
3D_Object
 10
  0
 20
  0
 30
  0
 70
128
 71
 70
 72
 74
 73
 28
  0
VERTEX
  8
3D_Object
 10
  0
 20
  0
 30
  0
 70
128
 71
 66
 72
 70
 73
 28
  0
VERTEX
  8
3D_Object
 10
  0
 20
  0
 30
  0
 70
128
 71
 62
 72
 66
 73
 28
  0
VERTEX
  8
3D_Object
 10
  0
 20
  0
 30
  0
 70
128
 71
 60
 72
 62
 73
 26
  0
VERTEX
  8
3D_Object
 10
  0
 20
  0
 30
  0
 70
128
 71
 58
 72
 60
 73
 13
  0
VERTEX
  8
3D_Object
 10
  0
 20
  0
 30
  0
 70
128
 71
 54
 72
 58
 73
 13
  0
VERTEX
  8
3D_Object
 10
  0
 20
  0
 30
  0
 70
128
 71
 36
 72
 54
 73
 13
  0
VERTEX
  8
3D_Object
 10
  0
 20
  0
 30
  0
 70
128
 71
 12
 72
 36
 73
 13
  0
VERTEX
  8
3D_Object
 10
  0
 20
  0
 30
  0
 70
128
 71
 13
 72
 60
 73
 26
  0
VERTEX
  8
3D_Object
 10
  0
 20
  0
 30
  0
 70
128
 71
 26
 72
 62
 73
 28
  0
VERTEX
  8
3D_Object
 10
  0
 20
  0
 30
  0
 70
128
 71
 74
 72
 52
 73
 28
  0
VERTEX
  8
3D_Object
 10
  0
 20
  0
 30
  0
 70
128
 71
 82
 72
 86
 73
 53
  0
VERTEX
  8
3D_Object
 10
  0
 20
  0
 30
  0
 70
128
 71
 86
 72
 90
 73
 53
  0
VERTEX
  8
3D_Object
 10
  0
 20
  0
 30
  0
 70
128
 71
 53
 72
 90
 73
 19
  0
VERTEX
  8
3D_Object
 10
  0
 20
  0
 30
  0
 70
128
 71
 90
 72
 94
 73
 19
  0
VERTEX
  8
3D_Object
 10
  0
 20
  0
 30
  0
 70
128
 71
 94
 72
 98
 73
 19
  0
VERTEX
  8
3D_Object
 10
  0
 20
  0
 30
  0
 70
128
 71
 98
 72
 99
 73
 19
  0
VERTEX
  8
3D_Object
 10
  0
 20
  0
 30
  0
 70
128
 71
 99
 72
103
 73
 19
  0
VERTEX
  8
3D_Object
 10
  0
 20
  0
 30
  0
 70
128
 71
103
 72
107
 73
 19
  0
VERTEX
  8
3D_Object
 10
  0
 20
  0
 30
  0
 70
128
 71
107
 72
 51
 73
 17
  0
VERTEX
  8
3D_Object
 10
  0
 20
  0
 30
  0
 70
128
 71
107
 72
 17
 73
 19
  0
VERTEX
  8
3D_Object
 10
  0
 20
  0
 30
  0
 70
128
 71
 51
 72
 15
 73
 17
  0
SEQEND
  8
3D_Object
  0
ENDSEC
  0
EOF
